<?xml version="1.0" encoding="UTF-8"?> <!-- Generator: Adobe Illustrator 27.5.0, SVG Export Plug-In . SVG Version: 6.00 Build 0) --> <svg xmlns="http://www.w3.org/2000/svg" xmlns:xlink="http://www.w3.org/1999/xlink" version="1.1" id="Layer_1" x="0px" y="0px" viewBox="0 0 488.2 98" style="enable-background:new 0 0 488.2 98;" xml:space="preserve"> <style type="text/css"> .st0{fill:#1F98EA;} .st1{fill:#212529;} </style> <g id="Layer_2_00000085212964159193451270000012470126123273357243_"> <g id="Assets"> <g> <path class="st0" d="M49,0C21.9,0,0,21.9,0,49s21.9,49,49,49c0.7,0,1.4,0,2,0V42.1c0-7.2,5.8-13,13-13c7.2,0,13,5.8,13,13v12.2 c0,0.4-0.3,0.8-0.8,0.8c0,0,0,0,0,0H61.8c-0.4,0-0.8-0.4-0.8-0.8c0,0,0,0,0,0v-4.4c0-0.4,0.4-0.8,0.8-0.8h8.8 c0.2,0,0.4-0.2,0.4-0.4c0,0,0,0,0,0v-6.5c0-3.9-3.2-7.1-7.1-7.2c0,0,0,0-0.1,0c-3.8,0.1-6.9,3.2-6.9,7v55.2 c26.7-4.6,44.6-29.9,40.1-56.6C93.1,17.3,72.8,0.1,49,0z M54.9,25.1l-3.1,3.1c-0.3,0.3-0.8,0.3-1.1,0l-3-3 c-0.2-0.2-0.4-0.1-0.6,0C47,25.3,47,25.4,47,25.5v36.7c0,7.2-5.8,13-13,13s-13-5.8-13-13V49.9c0-0.4,0.4-0.8,0.8-0.8c0,0,0,0,0,0 h14.5c0.4,0,0.8,0.3,0.8,0.8c0,0,0,0,0,0v4.4c0,0.4-0.4,0.8-0.8,0.8c0,0,0,0,0,0h-8.8c-0.2,0-0.4,0.2-0.4,0.4c0,0,0,0,0,0V62 c0,3.9,3.2,7.1,7.1,7.2c0,0,0,0,0.1,0c3.8-0.1,6.9-3.2,6.9-7V25.5c0-0.2-0.2-0.4-0.4-0.4c-0.1,0-0.2,0-0.3,0.1l-3,3 c-0.3,0.3-0.8,0.3-1.1,0l-3.1-3.1c-0.3-0.3-0.3-0.8,0-1.1l10.4-10.4c0.3-0.3,0.8-0.3,1.1,0l3.7,3.7l6.7,6.7 C55.2,24.3,55.2,24.8,54.9,25.1C54.9,25.1,54.9,25.1,54.9,25.1L54.9,25.1z"></path> <g> <path class="st1" d="M138.6,54c0,6-2,9-8.2,9c-1.1,0-2.3-0.1-3.4-0.3v-5c0.7,0.1,1.5,0.1,2.2,0.1c2.5,0,2.9-1.4,2.9-3.7V35.3 h6.6V54z"></path> <path class="st1" d="M167.5,48.8c0,8.3-3.6,14.3-12.2,14.3c-8.3,0-11.8-6.1-11.8-14.3c0-7.4,3.7-13.9,12.2-13.9 C163.8,34.9,167.5,41.1,167.5,48.8z M150.3,48.8c0,5.5,1.6,9.3,5.2,9.3c3.9,0,5.2-3.5,5.2-9.3c0-5-1.2-8.8-5.3-8.8 C151.7,39.9,150.3,43.5,150.3,48.8z"></path> <path class="st1" d="M172.6,35.3h11c6.1,0,8.6,3.2,8.6,7c0,3.3-1.7,4.9-3.3,5.5c2.7,1,4.4,3.7,4.2,6.5c0,5.2-3.8,8.3-9.7,8.3 h-10.8V35.3z M182.3,45.9c2.5,0,3.6-0.8,3.6-2.9s-1.3-3-3.4-3H179v5.9L182.3,45.9z M179,57.9h3.6c2.2,0,3.8-1,3.8-3.6 c0-2.5-1.3-3.7-4.2-3.7H179L179,57.9z"></path> <path class="st1" d="M203.2,54.5c0.3,2.2,1.6,3.8,4.1,3.8s3.5-1.2,3.5-2.8c0-2.1-1.4-3.1-5-4.2c-6.3-1.9-8.4-4.3-8.4-8.2 c0-5.2,4.1-8.1,9.5-8.1c6.7,0,9.6,3.5,9.8,8.1h-6.4c-0.2-1.8-1-3.3-3.5-3.3c-2,0-3,1-3,2.6c0,1.8,1.2,2.3,4.8,3.5 c6.7,2.1,8.7,4.8,8.7,8.9c0,4.7-3.2,8.4-10.4,8.4c-6.4,0-10-3.3-10.3-8.6L203.2,54.5z"></path> <path class="st1" d="M231.5,35.3h10.4c5.2,0,9.6,2.7,9.6,8.4s-4.1,8.7-10.1,8.7h-3.4v10.2h-6.5V35.3z M238.1,47.5h2.8 c2.6,0,4-1.1,4-3.7c0-2.5-1.5-3.5-3.9-3.5h-3L238.1,47.5z"></path> <path class="st1" d="M259.6,56.7l-1.5,5.9h-6.5l7.6-27.3h8.8l7.9,27.3H269l-1.6-5.9H259.6z M266.3,51.4 c-1.2-4.6-2.2-8.6-2.8-11.3h-0.1c-0.5,2.9-1.6,7-2.7,11.3H266.3z"></path> <path class="st1" d="M286.1,51.8v10.9h-6.5V35.3H291c5.5,0,8.9,2.8,8.9,7.5c0,3.7-1.9,5.5-4.1,6.4c2.6,1.1,3.5,3.2,3.5,6.6v0.8 c0,2,0.1,4,0.3,6h-6.3c-0.4-1.2-0.5-3-0.5-6.1v-0.8c0-3-1-3.9-4-3.9L286.1,51.8z M286.1,46.8h3.3c2.4,0,4.1-0.8,4.1-3.4 c0-2.3-1.5-3.2-3.5-3.2h-3.9L286.1,46.8z"></path> <path class="st1" d="M310,40.5h-6.9v-5.2h20.4v5.2h-6.9v22.1H310V40.5z"></path> <path class="st1" d="M327.6,62.6V35.3h8c6.3,14.7,7.5,17.7,7.9,18.9h0.1c-0.3-3.2-0.3-7.7-0.3-12.1v-6.8h6v27.3h-7.7 c-6.8-16.3-7.8-18.8-8.1-19.8h-0.1c0.2,3.4,0.2,8.1,0.2,12.9v6.9H327.6z"></path> <path class="st1" d="M372.9,51.1h-11.1v6.3h12.3l-0.8,5.2h-17.9V35.3h17.9v5.2h-11.5v5.3h11.1V51.1z"></path> <path class="st1" d="M384.9,51.8v10.9h-6.5V35.3h11.4c5.5,0,8.9,2.8,8.9,7.5c0,3.7-1.9,5.5-4.1,6.4c2.6,1.1,3.5,3.2,3.5,6.6v0.8 c0,2,0.1,4,0.3,6h-6.3c-0.4-1.2-0.5-3-0.5-6.1v-0.8c0-3-1-3.9-4-3.9L384.9,51.8z M384.9,46.8h3.3c2.4,0,4.1-0.8,4.1-3.4 c0-2.3-1.5-3.2-3.5-3.2h-3.9V46.8z"></path> <path class="st1" d="M408.9,54.5c0.3,2.2,1.6,3.8,4.1,3.8s3.5-1.2,3.5-2.8c0-2.1-1.4-3.1-5-4.2c-6.3-1.9-8.4-4.3-8.4-8.2 c0-5.2,4.1-8.1,9.5-8.1c6.7,0,9.6,3.5,9.8,8.1h-6.3c-0.2-1.8-1-3.3-3.5-3.3c-2,0-3,1-3,2.6c0,1.8,1.2,2.3,4.8,3.5 c6.7,2.1,8.7,4.8,8.7,8.9c0,4.7-3.2,8.4-10.3,8.4c-6.4,0-10-3.3-10.3-8.6L408.9,54.5z"></path> <path class="st1" d="M427.9,35.3h6.6v10.4h8V35.3h6.5v27.3h-6.6V51h-8v11.6h-6.6L427.9,35.3z"></path> <path class="st1" d="M461.9,35.3v27.3h-6.6V35.3H461.9z"></path> <path class="st1" d="M468.2,35.3h10.4c5.2,0,9.6,2.7,9.6,8.4s-4.1,8.7-10.1,8.7h-3.4v10.2h-6.5V35.3z M474.7,47.5h2.8 c2.6,0,4-1.1,4-3.7c0-2.5-1.5-3.5-3.9-3.5h-3L474.7,47.5z"></path> </g> </g> </g> </g> </svg> 